# xmcd
#
# Track frame offsets:
#	150
#	18931
#	42892
#	50511
#
# Disc length: 1139 seconds
#
# Revision: 2
# Processed by: cddbd v1.5.1PL0 Copyright (c) Steve Scherf et al.
# Submitted via: audiograbber 1.83.01
#
DISCID=28047104
DTITLE=Big Country - Singles Collection 2 CD1
DYEAR=1984
DGENRE=Rock
TTITLE0=Where The Rose Is Sown
TTITLE1=Belief In The Small Man
TTITLE2=Bass Dance
TTITLE3=Where The Rose Is Sown (Extended Mix)
EXTD=
EXTT0=
EXTT1=
EXTT2=
EXTT3=
PLAYORDER=
